<svg width="1182" height="1223" viewBox="0 0 1182 1223" fill="none" xmlns="http://www.w3.org/2000/svg">
<g id="Group">
<path id="Vector" d="M1179.39 1.33273C1179.39 2.53273 1180.04 3.46606 1180.7 3.46606C1181.48 3.46606 1182 2.93273 1182 2.26606C1182 1.46606 1181.48 0.532731 1180.7 0.132731C1180.04 -0.267269 1179.39 0.266064 1179.39 1.33273Z" fill="black"/>
<path id="Vector_2" d="M1089.44 85.4661C1089.44 86.5327 1090.09 87.4661 1090.74 87.4661C1091.52 87.4661 1092.04 86.5327 1092.04 85.4661C1092.04 84.3994 1091.52 83.4661 1090.74 83.4661C1090.09 83.4661 1089.44 84.3994 1089.44 85.4661Z" fill="black"/>
<path id="Vector_3" d="M512.282 95.0661C517.888 95.3328 526.623 95.3328 531.838 95.0661C537.053 94.9328 532.49 94.6661 521.669 94.6661C510.979 94.6661 506.677 94.9328 512.282 95.0661Z" fill="black"/>
<path id="Vector_4" d="M482.297 96.3994C483.47 96.666 485.556 96.666 486.86 96.3994C488.033 95.9994 486.99 95.7327 484.513 95.7327C482.036 95.7327 480.993 95.9994 482.297 96.3994Z" fill="black"/>
<path id="Vector_5" d="M552.698 96.3994C553.871 96.666 555.696 96.666 556.609 96.3994C557.391 95.9994 556.478 95.7327 554.262 95.7327C552.176 95.7327 551.394 95.9994 552.698 96.3994Z" fill="black"/>
<path id="Vector_6" d="M468.608 97.7329C469.39 97.9995 470.955 97.9995 471.867 97.7329C472.65 97.3329 471.998 97.0662 470.172 97.0662C468.347 97.0662 467.695 97.3329 468.608 97.7329Z" fill="black"/>
<path id="Vector_7" d="M566.387 97.7329C567.169 97.9995 568.733 97.9995 569.646 97.7329C570.428 97.3329 569.776 97.0662 567.951 97.0662C566.126 97.0662 565.474 97.3329 566.387 97.7329Z" fill="black"/>
<path id="Vector_8" d="M456.875 99.0661C457.787 99.4661 458.961 99.3328 459.352 98.9328C459.873 98.5328 459.091 98.1328 457.657 98.2661C456.223 98.2661 455.832 98.6661 456.875 99.0661Z" fill="black"/>
<path id="Vector_9" d="M578.12 99.0661C579.033 99.4661 580.206 99.3328 580.597 98.9328C581.118 98.5328 580.336 98.1328 578.902 98.2661C577.468 98.2661 577.077 98.6661 578.12 99.0661Z" fill="black"/>
<path id="Vector_10" d="M447.749 100.4C448.661 100.8 449.834 100.666 450.226 100.266C450.747 99.8663 449.965 99.4663 448.531 99.5996C447.097 99.5996 446.706 99.9996 447.749 100.4Z" fill="black"/>
<path id="Vector_11" d="M587.246 100.4C588.159 100.8 589.332 100.666 589.723 100.266C590.245 99.8663 589.462 99.4663 588.028 99.5996C586.594 99.5996 586.203 99.9996 587.246 100.4Z" fill="black"/>
<path id="Vector_12" d="M596.372 101.733C597.285 102.133 598.458 102 598.849 101.6C599.371 101.2 598.588 100.8 597.154 100.933C595.72 100.933 595.329 101.333 596.372 101.733Z" fill="black"/>
<path id="Vector_13" d="M604.194 103.066C605.107 103.466 606.28 103.333 606.671 102.933C607.193 102.533 606.411 102.133 604.976 102.266C603.542 102.266 603.151 102.666 604.194 103.066Z" fill="black"/>
<path id="Vector_14" d="M412.548 107.066C413.461 107.466 414.634 107.333 415.025 106.933C415.547 106.533 414.765 106.133 413.331 106.266C411.896 106.266 411.505 106.666 412.548 107.066Z" fill="black"/>
<path id="Vector_15" d="M625.054 107.066C625.966 107.466 627.14 107.333 627.531 106.933C628.052 106.533 627.27 106.133 625.836 106.266C624.402 106.266 624.011 106.666 625.054 107.066Z" fill="black"/>
<path id="8" d="M491.684 114.133C405.248 120.533 329.371 146.933 255.321 196.266C209.43 226.933 161.584 272.666 127.165 318.799C109.305 342.533 85.3163 383.999 72.931 411.999C29.7781 510.533 18.175 623.066 40.7293 727.466C51.9412 779.466 71.2362 829.599 97.5712 874.799C156.499 975.733 250.888 1053.2 363.92 1093.2C451.008 1123.87 550.612 1127.87 642.002 1104.13C738.607 1079.2 827.651 1022.67 893.358 944.666C940.943 888.133 970.407 832.133 990.876 759.199C1019.43 657.599 1017.08 559.199 983.836 457.999C957.761 378.399 915.391 311.599 853.073 251.733C783.194 184.399 689.718 135.866 601.196 120.799C564.301 114.533 521.408 111.999 491.684 114.133ZM565.344 165.333C619.708 172.266 661.427 185.199 709.925 209.999C746.169 228.666 773.416 247.066 806.139 275.333C885.144 343.333 937.293 440.933 953.068 550.133C960.108 598.133 958.152 668.799 948.505 716.666C934.294 787.466 906.004 848.933 860.765 907.466C849.553 921.999 813.44 958.399 796.753 971.866C750.08 1009.87 693.368 1039.47 638.352 1054.53C589.984 1067.87 534.837 1073.87 492.987 1070.27C407.725 1062.93 337.585 1037.87 266.272 988.799C226.508 961.599 187.136 921.599 158.455 879.333C102.786 797.466 76.3207 695.199 82.8392 588.133C85.1859 550.399 90.14 521.733 100.7 484.666C145.287 327.733 279.57 203.999 441.491 171.066C457.918 167.599 484.904 163.866 499.506 162.933C513.456 161.999 549.96 163.333 565.344 165.333ZM69.6717 685.466C69.2806 685.866 68.4984 685.199 68.1073 683.866C67.325 681.999 67.4554 681.866 68.7591 683.066C69.6717 683.999 70.0628 685.066 69.6717 685.466Z" fill="black"/>
<path id="6" d="M499.115 438.666C482.297 441.466 462.35 447.599 460.916 450.399C460.264 451.733 455.962 454.666 451.529 456.933C430.931 467.466 418.415 476.666 402.119 493.199C369.135 526.933 352.317 564.133 350.622 607.466C349.84 628.133 351.665 641.333 358.184 662.133C372.655 707.599 407.073 747.333 449.704 767.466C482.427 782.799 520.235 787.199 555.566 779.599C575.382 775.466 606.802 760.133 624.011 746.399C633.397 738.799 655.039 716.799 660.906 708.799C668.076 698.933 678.115 677.999 681.896 664.533C687.893 643.333 688.545 638.266 688.414 614.133C688.414 594.799 687.893 588.799 685.676 579.466C677.202 544.799 661.427 517.599 635.223 491.733C627.14 483.866 615.276 473.866 608.757 469.466C602.108 465.066 596.502 460.399 595.981 459.199C594.286 454.266 566.647 443.066 547.743 439.466C534.706 437.066 510.979 436.666 499.115 438.666ZM540.834 446.799C556.087 448.799 580.467 456.533 594.156 463.466C622.186 477.866 643.958 500.399 658.559 530.133C664.556 542.133 671.205 562.133 674.464 577.199C677.333 590.799 677.724 632.933 675.116 645.466C669.771 670.666 661.558 690.666 646.826 714.133C631.051 739.333 604.716 756.933 570.167 765.466C539.269 773.066 524.146 774.266 498.333 770.799C480.602 768.399 466.261 763.999 449.965 756.133C443.577 753.066 436.928 749.999 435.233 749.599C430.8 748.133 411.766 733.199 402.901 724.133C377.218 697.999 361.964 656.399 361.964 612.666C361.964 576.266 373.437 537.199 392.341 508.933C398.468 499.866 412.288 485.466 422.457 477.599C434.32 468.533 455.18 456.399 459.612 455.999C461.438 455.866 464.567 455.066 466.652 454.266C473.432 451.599 491.162 447.333 500.549 446.266C515.02 444.533 525.58 444.666 540.834 446.799Z" fill="black"/>
<path id="5" d="M497.29 456.133C461.829 461.866 426.237 483.599 401.988 514.399C379.173 543.466 366.006 588.133 369.656 623.866C371.872 644.266 375.653 658.533 383.345 674.799C391.559 692.266 402.119 707.066 416.199 720.933C462.741 766.666 531.968 776.133 592.07 745.199C619.317 731.066 648.52 698.399 659.341 669.599C666.642 650.399 668.598 640.399 669.249 618.666C670.162 594.399 667.946 578.666 660.906 559.599C654.648 542.266 649.042 531.599 639.003 517.999C620.491 492.666 590.505 470.666 562.345 461.466C540.312 454.266 519.714 452.666 497.29 456.133ZM537.705 467.466C551.785 469.333 563.388 473.066 577.468 480.266C593.373 488.399 599.24 492.666 614.102 507.466C637.569 530.666 650.997 556.533 655.952 588.133C668.207 664.666 621.403 733.333 546.44 748.933C536.271 751.066 505.764 751.066 494.943 748.933C449.183 739.999 413.331 712.133 394.557 671.066C386.083 652.666 382.693 638.533 381.911 619.199C380.998 598.533 382.824 584.666 388.69 566.533C394.427 549.066 400.293 537.199 409.941 524.133C440.839 481.733 487.512 461.066 537.705 467.466Z" fill="black"/>
<path id="4" d="M498.594 475.466C481.515 478.266 461.438 487.199 446.054 498.799C418.676 519.466 401.206 546.133 392.341 580.666C387.517 599.199 387.648 623.866 392.471 642.799C406.942 699.733 455.18 739.733 513.195 743.066C558.695 745.599 603.412 723.466 627.661 686.399C640.829 666.399 646.304 652.133 649.564 629.866C655.691 587.333 641.481 546.133 609.8 513.999C591.027 494.933 575.773 485.333 554.001 478.666C544.615 475.866 539.269 475.066 524.277 474.799C514.238 474.533 502.635 474.799 498.594 475.466ZM532.751 486.133C548.395 488.133 560.259 491.999 573.818 499.599C603.542 516.266 625.184 543.733 635.353 577.733C638.482 588.266 638.873 591.599 638.873 610.799C639.003 635.333 636.918 645.066 627.661 664.133C607.714 705.199 571.471 728.933 525.58 731.066C468.347 733.733 420.892 699.733 404.074 643.866C400.945 633.199 400.554 630.133 400.554 610.799C400.554 591.333 400.945 588.399 404.205 577.466C415.025 541.199 437.71 513.333 469.521 497.066C490.119 486.666 509.414 483.333 532.751 486.133Z" fill="black"/>
<path id="2" d="M502.374 538.799C485.556 543.466 467.565 557.999 459.091 573.333C448.27 593.333 447.879 620.399 458.178 639.999C462.872 648.933 474.475 661.466 482.949 667.066C510.457 685.066 546.961 680.266 569.515 655.599C590.505 632.799 594.677 603.199 580.988 574.666C576.164 564.666 561.041 549.466 550.872 544.399C536.14 537.066 516.585 534.799 502.374 538.799ZM530.795 561.466C549.178 566.399 561.824 580.666 565.213 600.266C568.733 619.866 557.912 641.199 539.921 650.133C534.315 653.066 531.577 653.466 519.714 653.466C503.548 653.466 497.42 651.066 487.251 640.933C461.959 615.599 473.562 570.799 507.85 561.333C516.063 559.066 521.669 559.066 530.795 561.466Z" fill="black"/>
<path id="1" d="M509.936 583.333C503.156 586.399 496.768 593.999 494.943 600.933C490.51 617.599 507.068 636.799 522.712 633.333C532.751 631.199 540.182 625.199 543.832 616.533C547.613 607.066 545.397 597.333 537.444 589.333C529.361 580.933 519.583 578.799 509.936 583.333Z" fill="black"/>
<g id="3">
<g id="Group 1">
<path id="Vector_16" d="M496.899 494.8C480.211 498.533 474.344 502.933 477.995 508.8C479.038 510.533 479.95 510.4 485.426 508.266C498.593 503.066 506.676 501.866 522.973 502.533C534.576 502.933 540.834 504 547.222 506.133C556.869 509.6 560.129 509.066 560.129 504.266C560.129 500.4 555.435 497.866 543.05 494.8C532.751 492.4 507.719 492.266 496.899 494.8Z" fill="black"/>
<path id="Vector_17" d="M473.432 707.466C472.258 711.333 474.475 713.599 482.949 716.799C501.592 723.999 524.016 725.466 543.18 720.799C562.215 716.133 569.255 711.066 563.518 706.133C561.954 704.933 559.607 705.333 551.785 707.999C531.577 715.199 507.98 715.466 489.859 708.666C478.256 704.266 474.475 703.999 473.432 707.466Z" fill="black"/>
</g>
<g id="Grupo2">
<path id="Vector_18" d="M460.395 537.199C455.31 542.399 454.789 544.933 457.918 547.999C460.395 550.533 462.481 549.599 468.869 542.933C472.519 538.933 473.041 537.599 471.998 535.733C469.521 531.733 465.218 532.266 460.395 537.199Z" fill="black"/>
<path id="Vector_19" d="M568.212 534.399C565.735 536.933 566.256 538.533 571.732 543.999C575.513 547.733 577.468 548.799 579.424 548.266C584.899 546.399 584.117 540.799 577.598 535.599C573.687 532.399 570.558 531.999 568.212 534.399Z" fill="black"/>
<path id="Vector_20" d="M437.058 633.6C434.32 636.266 434.451 636.8 438.101 645.333C444.229 659.6 460.264 680.133 464.436 679.199C467.304 678.666 469.521 674.933 468.478 672.666C467.956 671.599 464.306 666.933 460.395 662.133C456.353 657.333 450.878 648.533 448.009 642.4C442.795 631.333 440.839 629.733 437.058 633.6Z" fill="black"/>
<path id="Vector_21" d="M596.242 632.399C595.72 632.799 593.113 638.133 590.245 643.999C587.376 649.999 581.64 658.933 577.207 664.133C568.733 673.999 567.69 677.199 571.862 679.466C573.948 680.533 575.252 679.999 579.033 676.666C588.289 668.266 603.151 643.466 603.151 636.266C603.151 632.533 598.588 629.866 596.242 632.399Z" fill="black"/>
</g>
</g>
<g id="7">
<g id="Group 2">
<path id="7_2" d="M493.639 175.599C437.319 180.533 383.215 195.866 336.151 219.999C220.381 279.466 137.726 381.066 107.088 501.466C99.5268 531.333 93.7905 570.133 96.0068 575.999C97.3105 579.599 100.961 582.133 105.002 582.133C110.087 582.133 112.303 576.533 117.388 549.999C133.945 464.266 169.015 393.333 223.771 334.933C236.677 321.199 261.057 298.666 273.312 289.066C277.223 285.999 281.134 282.933 281.786 282.399C285.306 279.599 295.214 273.066 298.082 271.599L301.342 269.999L298.082 272.933L294.823 275.866L297.952 274.799C300.82 273.866 300.951 273.999 299.256 276.533C298.213 277.866 291.825 284.133 285.045 290.133C253.495 318.266 224.553 351.199 200.565 386.533C190.656 400.933 188.31 405.333 189.353 407.999C190.265 410.399 195.35 412.133 198.218 411.066C199.261 410.666 204.215 403.999 209.43 396.266C228.855 367.066 259.232 334.799 286.61 314.399C294.302 308.666 296.388 307.599 294.693 310.399C294.041 311.466 294.432 311.599 295.996 311.066C297.43 310.533 297.952 310.666 297.3 311.599C296.909 312.399 295.345 312.666 293.78 312.266C291.825 311.866 291.564 311.999 292.607 313.066C293.78 314.266 288.565 320.399 272.79 336.799C237.851 373.199 218.947 399.466 195.089 444.666C174.751 483.333 162.496 522.266 156.499 567.466C153.37 591.333 153.24 647.333 156.369 670.133C161.323 705.999 169.275 736.666 183.225 772.666C186.745 781.999 188.179 787.066 187.267 787.999C186.615 788.666 185.963 790.533 185.963 792.133C185.833 794.799 185.833 794.799 183.747 792.133C180.357 787.733 166.929 758.266 162.627 745.599C155.586 725.333 148.938 698.266 145.548 676.799C144.766 671.999 143.853 666.266 143.462 663.866C142.158 655.733 135.118 652.799 129.903 658.133C126.644 661.466 126.644 665.599 130.034 686.266C137.335 730.399 149.459 768.399 169.797 811.199C180.748 834.133 182.052 838.399 179.184 840.266C176.576 841.866 171.101 833.599 159.367 810.133C137.726 766.933 125.34 729.466 115.432 677.199C113.998 669.599 112.173 661.866 111.391 659.999C108.653 653.999 98.4838 654.133 95.7461 660.266C93.7905 664.533 95.8764 684.133 101.352 712.266C115.171 784.799 146.982 851.066 195.871 908.799C252.322 975.599 339.41 1028.27 425.846 1048C446.054 1052.53 473.041 1056.4 498.333 1058.27C531.838 1060.8 574.078 1057.07 614.233 1048C679.94 1033.07 738.607 1004.13 792.19 960.266C809.138 946.533 846.815 906.799 859.852 889.066C892.315 844.933 913.696 802.133 928.558 751.599C938.466 718.399 946.81 667.199 943.681 660.133C940.813 653.866 930.514 654.133 927.906 660.399C927.124 662.533 925.038 671.466 923.213 680.399C915 721.466 905.743 753.466 894.922 778.799C882.016 808.933 864.415 840.799 860.765 840.799C856.202 840.799 857.766 835.333 868.196 814.133C886.579 776.933 898.182 743.066 906.265 702.799C912.262 672.533 913.174 663.199 910.306 658.799C907.829 654.933 901.832 654.266 898.573 657.599C897.399 658.666 896.487 659.733 896.487 659.866C888.795 709.466 879.799 742.266 865.98 772.133C858.809 787.333 850.987 801.333 850.857 798.533C850.857 797.733 851.509 796.533 852.161 796.133C852.943 795.599 853.073 794.399 852.291 793.066C850.596 789.599 851.509 785.599 858.027 768.266C870.804 733.999 878.887 701.466 882.798 668.133C885.796 642.799 885.927 593.066 882.928 568.933C876.018 511.466 855.941 458.533 820.089 403.466C802.88 376.933 788.409 359.333 761.422 331.866C747.472 317.733 736.652 306.266 737.173 306.266C739.78 306.666 740.172 305.866 738.607 303.866C735.739 300.266 748.515 309.733 760.77 320.133C789.191 344.666 813.701 371.466 828.954 394.799C833.257 401.333 837.689 407.866 838.863 409.066C841.47 412.266 846.033 412.133 848.771 408.933C850.857 406.533 850.987 405.999 849.032 401.866C846.294 396.133 820.48 360.666 807.965 345.466C787.236 320.399 767.941 301.333 742.649 281.066C739.78 278.666 739.65 278.133 741.345 275.999C743.17 273.733 743.04 273.599 741.084 275.199C739.911 276.266 738.607 276.399 738.216 275.733C737.825 274.933 738.346 273.999 739.52 273.599C740.563 273.199 741.084 272.133 740.693 271.333C739.65 269.733 748.385 275.199 755.686 280.666C782.281 300.666 820.22 337.733 839.123 362.133C857.375 385.733 878.496 420.266 889.838 445.466C904.57 477.733 913.696 507.599 922.561 552.799C924.908 564.133 927.515 575.066 928.558 577.066C932.078 583.999 942.508 583.199 944.203 575.999C946.289 567.333 937.815 519.866 928.428 487.733C907.438 415.999 871.586 355.866 817.612 302.399C763.247 248.533 691.282 206.533 621.925 188.133C581.51 177.466 529.491 172.399 493.639 175.599ZM536.01 217.466C536.271 247.466 540.443 316.533 542.529 323.333C545.658 333.999 544.745 334.399 518.41 333.866L499.506 333.466L499.636 327.466C499.897 317.733 496.508 261.866 495.595 261.066C495.204 260.533 494.422 260.799 493.9 261.599C484.644 275.199 448.531 322.933 447.227 323.199C446.315 323.466 431.583 315.999 414.634 306.799C397.686 297.466 383.606 290.133 383.345 290.533C382.433 291.333 397.034 340.799 400.033 347.199C403.292 354.133 402.51 356.266 396.252 359.066C393.514 360.133 385.822 363.599 379.043 366.799C372.264 369.999 366.006 372.266 365.093 371.866C364.181 371.599 362.747 367.866 361.834 363.733C359.096 349.866 329.893 264.666 325.33 257.199C323.766 254.799 322.983 251.866 323.374 250.799C323.766 249.733 334.586 243.466 347.493 236.799C368.613 225.999 371.351 224.933 374.61 226.266C378.782 227.866 382.954 230.533 412.027 249.866C423.369 257.466 433.408 263.866 434.19 264.266C434.972 264.533 437.971 261.333 440.969 257.066C443.968 252.933 454.398 237.999 464.306 224.133L482.167 198.799L498.593 197.999C507.719 197.599 519.844 197.333 525.58 197.333L535.88 197.466L536.01 217.466ZM600.544 204.933C607.323 206.533 617.883 208.933 624.011 210.266C649.563 216.133 669.38 224.799 679.158 234.533C687.371 242.799 690.761 250.133 691.543 261.466C692.195 272.933 688.675 283.733 681.504 291.866C676.941 297.066 665.99 303.466 661.558 303.466C656.995 303.466 658.429 308.266 674.334 345.466C677.463 352.799 680.07 359.599 680.07 360.666C680.07 362.933 674.725 362.133 653.344 356.666C644.088 354.266 637.048 351.733 636.005 350.533C634.18 347.999 628.443 333.066 621.925 314.266C619.578 307.333 616.84 301.199 615.928 300.666C614.233 299.466 608.366 299.066 608.366 299.999C608.366 300.266 606.932 306.399 605.107 313.599C603.282 320.933 601.456 329.999 600.935 333.866C600.544 337.866 599.501 341.333 598.588 341.599C597.285 342.133 567.69 336.666 561.172 334.666C557.782 333.599 557.391 330.399 560.259 324.933C561.693 321.866 565.213 306.799 568.603 287.999C571.862 270.399 576.034 248.399 577.859 238.799C579.684 228.933 580.988 217.733 580.858 212.666C580.597 202.533 581.379 200.533 585.29 201.466C586.855 201.866 593.765 203.333 600.544 204.933ZM298.995 341.333C298.082 342.933 291.694 350.666 284.784 358.266C268.618 376.133 261.448 385.466 246.716 407.466C214.514 455.466 195.48 500.666 185.442 552.799C173.969 611.999 178.141 672.799 198.348 737.866C201.347 747.733 201.608 749.333 199.913 751.199C198.87 752.533 198.348 754.399 198.739 755.466C199 756.533 199 757.066 198.479 756.533C197.957 756.133 197.436 754.799 197.175 753.733C197.045 752.666 196.262 750.933 195.48 749.999C193.133 747.066 186.615 729.199 181.53 712.266C176.316 694.933 171.361 669.599 169.015 649.466C166.929 631.733 166.798 591.333 168.884 574.799C177.489 505.199 204.606 440.266 247.629 387.066C255.06 377.866 278.266 353.999 286.87 346.933C291.173 343.199 298.995 338.133 300.299 338.133C300.429 338.133 299.777 339.599 298.995 341.333ZM743.3 340.933C742.779 341.733 743.17 342.133 744.213 341.866C747.081 341.199 760.509 352.799 775.893 368.933C811.224 406.266 838.08 451.599 853.986 500.799C872.498 558.133 876.931 608.133 868.457 664.799C864.155 692.933 856.072 721.733 845.381 746.799C839.384 760.666 838.863 761.466 839.775 755.333C840.427 751.599 840.297 751.333 839.254 753.733C837.689 757.333 834.691 757.866 835.734 754.399C835.995 753.199 838.472 745.199 840.949 736.799C865.328 655.733 866.762 591.066 846.033 518.799C831.04 466.533 801.576 412.666 763.638 368.399C746.56 348.399 741.475 341.733 742.127 340.533C742.518 339.999 743.04 339.466 743.431 339.466C743.822 339.466 743.692 340.133 743.3 340.933ZM721.789 356.933C721.789 357.999 722.441 357.999 723.745 356.799C726.091 354.799 728.308 356.399 746.56 373.066C796.231 418.399 828.824 481.066 841.861 556.399C844.469 571.066 844.86 578.133 844.86 605.466C844.86 639.466 843.817 649.466 837.037 680.533C831.692 705.199 825.174 724.799 814.744 747.199L812.658 751.733L810.963 747.599C809.399 743.866 809.659 742.266 813.831 730.666C826.477 694.666 833.909 651.199 833.909 612.133C833.909 561.733 822.697 514.266 799.36 465.466C782.933 430.933 761.552 400.666 731.697 369.066C724.657 361.599 719.443 355.466 720.225 355.466C721.137 355.466 721.789 356.133 721.789 356.933ZM313.988 360.799C313.727 361.733 307.73 368.933 300.559 376.799C264.447 416.399 239.676 458.133 223.901 505.733C199.782 578.533 199.522 647.333 222.988 722.133C225.987 731.999 228.073 740.399 227.421 740.533C226.9 740.799 226.639 741.599 227.03 742.266C227.551 742.933 226.9 743.066 225.726 742.666C224.292 741.999 223.901 742.533 224.423 744.266C224.814 745.733 223.249 742.933 221.163 738.399C209.039 712.666 199.522 675.466 195.741 639.466C187.267 559.199 211.777 472.399 260.927 408.133C276.962 387.199 307.339 357.999 312.162 358.799C313.336 358.933 314.248 359.866 313.988 360.799ZM477.734 368.266C486.86 378.799 471.476 392.533 461.959 382.399C456.484 376.533 457.657 369.466 464.697 365.466C469.13 362.933 473.953 363.999 477.734 368.266ZM576.164 365.066C583.987 369.333 585.421 377.599 579.163 382.933C571.993 389.333 561.432 385.066 561.432 375.733C561.563 370.133 563.518 366.799 568.081 364.933C572.253 363.199 572.905 363.199 576.164 365.066ZM523.625 369.466C523.625 372.799 520.626 374.133 519.062 371.466C517.758 369.333 519.323 366.133 521.669 366.133C522.843 366.133 523.625 367.333 523.625 369.466ZM422.978 389.066C422.717 390.799 421.674 392.133 420.631 392.133C419.588 392.133 418.545 390.799 418.285 389.066C417.894 386.799 418.545 386.133 420.631 386.133C422.717 386.133 423.369 386.799 422.978 389.066ZM621.143 389.066C620.882 390.799 619.839 392.133 618.796 392.133C617.753 392.133 616.71 390.799 616.449 389.066C616.058 386.799 616.71 386.133 618.796 386.133C620.882 386.133 621.534 386.799 621.143 389.066ZM316.074 395.866C316.334 397.333 313.336 401.999 308.121 407.866C288.435 430.533 276.701 448.933 262.23 479.866C229.377 550.399 223.119 625.999 243.978 702.799C247.629 716.399 248.411 720.933 247.498 724.133L246.325 728.133L242.283 719.466C232.766 698.399 224.292 664.799 221.163 635.733C219.077 616.666 220.12 573.866 222.988 557.466C232.114 505.733 251.931 459.866 279.57 426.133C296.779 405.199 309.425 392.533 312.684 393.066C314.379 393.333 315.813 394.533 316.074 395.866ZM741.475 404.666C771.721 436.266 790.756 467.599 804.314 508.133C815.787 542.399 819.698 566.666 819.698 602.133C819.698 648.133 812.137 685.199 794.406 726.399C792.972 729.999 789.582 731.599 789.582 728.799C789.582 727.999 790.234 727.466 790.886 727.466C791.668 727.466 792.19 726.799 792.19 725.999C792.19 725.333 791.668 725.066 790.886 725.466C788.93 726.666 789.191 725.199 793.493 710.666C809.008 657.333 812.006 606.799 802.619 556.933C793.102 506.399 768.201 452.133 737.955 415.733C722.702 397.333 722.702 397.199 723.484 394.933C725.309 390.266 730.133 392.799 741.475 404.666ZM339.54 407.599C339.801 408.933 335.89 414.266 330.806 419.999C285.045 470.266 258.971 542.666 258.971 619.066C258.971 651.999 263.925 679.333 278.005 724.533C278.657 726.399 278.527 726.533 277.353 724.799C276.31 723.333 275.658 723.199 274.876 724.399C272.008 729.066 258.71 693.466 252.583 664.533C246.325 634.666 245.543 587.866 251.018 556.799C260.405 502.666 281.786 458.799 317.638 420.266C331.066 405.733 338.367 401.599 339.54 407.599ZM722.441 421.199C765.724 466.533 789.322 524.399 792.972 594.133C794.536 624.666 789.322 664.133 779.935 692.799C775.633 705.733 766.898 725.466 767.941 719.999C768.201 718.266 767.68 717.199 766.507 717.199C765.464 717.199 764.942 717.999 765.333 718.933C765.724 719.999 765.464 721.066 764.812 721.466C762.856 722.666 763.247 719.599 766.767 709.066C770.939 695.866 777.327 667.066 779.283 651.466C783.194 621.333 780.456 577.599 772.634 545.066C761.031 496.533 736 447.466 708.882 420.133C701.582 412.799 699.365 408.266 701.842 405.733C704.189 403.199 708.1 406.133 722.441 421.199ZM554.523 411.599C624.141 425.066 682.287 478.266 705.623 549.599C710.317 563.733 710.317 567.466 705.623 569.199C702.885 570.266 701.712 568.133 697.149 554.133C679.679 499.733 640.698 455.999 590.114 433.733C554.653 418.266 521.017 414.799 482.167 422.933C449.704 429.733 417.242 447.466 391.95 472.266C377.218 486.799 366.788 500.933 356.749 519.866C350.622 531.466 349.058 533.466 346.32 533.466C338.497 533.466 343.452 520.266 361.182 493.466C371.612 477.733 395.73 453.199 410.723 442.933C455.049 412.799 504.851 401.999 554.523 411.599ZM350.231 431.066C350.231 432.399 345.407 439.466 339.671 446.799C301.081 495.999 283.481 547.066 283.22 610.799C283.09 641.733 286.349 661.733 296.388 693.466C298.865 701.466 301.211 709.599 301.472 711.466C301.993 714.666 301.993 714.799 299.908 712.133C297.952 709.599 297.952 709.599 298.734 713.466C299.908 719.866 289.739 698.933 285.306 685.999C279.439 669.066 274.876 646.399 273.181 625.599C267.706 560.666 290.782 487.333 330.023 444.933C338.237 436.133 346.58 429.066 349.318 428.933C349.84 428.799 350.231 429.866 350.231 431.066ZM556.478 433.333C571.341 436.799 592.982 445.733 607.062 454.133C645.652 477.066 676.941 518.799 689.587 564.133C695.454 584.933 696.236 591.333 696.367 614.133C696.367 639.599 694.802 649.733 687.762 671.999C679.419 698.133 662.34 726.933 645.261 743.599C613.32 774.799 570.298 791.466 521.539 791.466C485.165 791.466 450.747 780.799 419.719 759.866C398.077 745.333 372.264 716.399 361.443 694.533C332.24 635.066 337.194 566.533 374.741 509.333C401.467 468.799 443.055 440.799 490.25 431.466C508.893 427.866 536.923 428.533 556.478 433.333ZM707.97 442.666C730.133 464.799 748.646 500.799 759.466 542.399C771.461 588.133 769.766 643.333 755.164 685.866C751.253 697.333 742.388 716.799 741.084 716.799C740.563 716.799 740.432 715.866 740.954 714.666C741.606 712.799 741.345 712.666 738.998 713.999C735.869 715.733 735.609 716.799 741.215 702.533C749.819 680.399 755.425 650.399 756.598 621.466C759.075 554.799 739.389 494.799 699.105 445.866C693.107 438.666 690.891 434.933 691.413 433.066C692.456 428.799 696.367 430.933 707.97 442.666ZM337.194 485.599C337.194 489.066 330.936 496.799 328.198 496.799C325.721 496.799 326.634 489.333 329.502 485.599C333.022 480.933 337.194 480.933 337.194 485.599ZM709.143 484.399C711.751 487.466 713.185 493.599 711.62 494.666C709.404 495.999 702.234 488.933 702.234 485.333C702.234 481.466 706.014 480.933 709.143 484.399ZM325.46 506.399C325.46 508.666 323.505 515.599 321.028 521.999C303.558 566.533 300.951 626.266 314.509 669.466C318.942 683.866 331.327 709.599 340.453 723.466C349.449 737.066 357.271 746.666 372.785 763.066C383.084 773.999 384.127 775.599 382.824 778.133C379.825 783.733 377.739 782.933 366.267 771.333C333.934 738.533 308.512 692.266 300.168 650.933C291.303 607.333 295.736 559.466 312.423 517.999C316.334 508.266 322.201 500.266 324.417 501.599C324.939 501.999 325.46 504.133 325.46 506.399ZM722.963 509.066C728.438 518.933 736.782 545.333 740.302 564.133C744.474 587.199 744.474 628.533 740.302 648.533C735.348 671.866 723.875 704.399 722.18 699.866C721.92 698.933 720.746 698.666 719.573 699.066C718.139 699.733 717.748 699.199 718.4 697.333C730.785 656.133 733.653 639.999 733.653 608.133C733.653 576.666 728.829 549.333 718.4 521.599C714.488 511.199 714.097 509.066 715.401 505.866C716.183 503.866 717.357 502.133 718.008 502.133C718.66 502.133 720.877 505.199 722.963 509.066ZM337.976 666.799C345.668 689.733 354.924 707.733 368.353 725.999C380.607 742.666 381.52 743.999 381.52 746.399C381.52 747.599 380.216 749.066 378.652 749.599C376.305 750.266 374.871 749.466 371.09 745.199C356.619 728.399 342.409 703.999 332.761 679.066C325.2 659.999 324.808 653.466 331.327 654.399C333.283 654.666 334.847 657.466 337.976 666.799ZM275.789 770.133C284.524 777.599 291.564 784.399 291.564 785.466C291.564 786.399 290.912 788.933 290.13 791.066C288.044 796.399 286.87 801.599 282.568 823.466C277.484 849.333 276.832 854.133 278.136 854.133C279.309 854.133 298.604 837.066 314.77 821.866C319.203 817.599 323.896 814.133 324.939 814.133C325.982 814.133 330.806 817.333 335.629 821.199C340.453 825.199 347.102 830.399 350.622 832.799C358.705 838.666 358.835 842.133 351.274 846.933C348.145 848.933 342.148 853.599 337.846 857.333C333.543 861.199 328.198 865.733 325.982 867.466C323.766 869.333 314.118 877.333 304.601 885.466C295.084 893.466 281.656 904.799 274.876 910.399C268.097 916.133 260.666 923.6 258.449 927.066C256.233 930.666 253.235 933.6 251.801 933.866C250.106 934.133 246.064 931.466 240.719 926.666C236.026 922.533 228.725 916.399 224.423 913.199C220.12 909.866 216.209 906.533 215.688 905.599C213.602 902.399 214.775 898.133 218.425 895.333C221.424 893.066 222.858 890.266 225.074 881.999C228.986 867.199 245.412 795.199 249.193 776.266C252.583 759.599 253.886 756.799 257.798 756.799C259.101 756.799 267.184 762.799 275.789 770.133ZM686.589 800.133C689.587 803.866 686.067 807.999 672.378 817.333C645.522 835.599 613.972 850.133 584.899 857.466C564.692 862.666 546.57 864.799 521.408 864.799C482.167 864.799 466.392 860.533 475.387 852.133C477.604 850.133 478.777 849.999 486.078 851.333C490.641 852.133 502.244 853.199 512.022 853.733C564.04 856.133 620.23 839.466 665.078 808.266C679.679 798.133 683.721 796.533 686.589 800.133ZM722.311 805.599C723.354 805.999 725.179 809.333 726.352 812.933C728.568 819.466 739.52 839.333 759.988 873.466C765.724 882.933 770.548 890.933 770.678 891.199C771.2 891.866 782.281 881.733 800.403 864.266C809.659 855.466 817.873 848.133 818.655 848.133C819.568 848.133 823.609 853.199 827.781 859.466C831.823 865.599 837.037 872.666 839.384 875.066C843.165 879.066 843.295 879.599 841.731 883.333C837.95 892.666 761.161 963.466 754.904 963.466C752.948 963.466 750.341 958.666 747.863 950.8C746.299 945.6 728.438 912.533 704.45 870.133C698.062 858.799 690.5 846.933 687.762 843.866C684.894 840.666 682.678 837.333 682.678 836.266C682.678 835.199 687.762 830.666 694.15 826.266C700.408 821.866 708.361 815.199 712.011 811.599C718.66 804.533 719.051 804.266 722.311 805.599ZM672.639 856.533C673.161 861.333 678.115 877.333 686.589 900.799C708.752 962.666 711.229 968.666 716.835 974C722.18 979.2 723.093 983.2 719.573 986.533C715.271 990.4 677.202 1007.47 672.639 1007.47C668.858 1007.47 667.946 1005.6 668.207 998C668.337 993.6 666.642 986.533 662.34 973.866C659.081 964.133 651.389 941.066 645.392 922.799C639.264 904.4 632.224 885.066 629.486 879.733C624.011 868.399 624.271 866.933 633.267 862.799C636.396 861.466 645.522 856.799 653.344 852.666C670.162 843.866 671.466 844.133 672.639 856.533ZM390.646 856.533C405.769 864.266 410.984 867.466 411.245 869.466C411.375 870.933 409.68 875.066 407.464 878.533C403.944 883.999 391.559 916.933 369.004 981.2C367.179 986.4 365.875 992.666 366.136 995.6C366.267 998.933 365.615 1001.6 364.311 1002.93C362.355 1004.93 361.704 1004.93 356.489 1003.07C348.275 1000.13 318.42 985.733 315.943 983.6C312.423 980.666 313.336 977.2 319.333 971.2C322.331 968 325.721 962.8 327.025 959.466C328.198 956.133 333.804 940.8 339.54 925.466C345.277 909.999 352.969 889.466 356.619 879.599C360.53 869.199 363.268 859.466 363.268 856.533C363.268 850.133 365.224 846.133 368.222 846.266C369.395 846.266 379.564 850.933 390.646 856.533ZM438.362 875.599C447.358 878.399 447.358 878.533 473.301 905.599C487.512 920.533 499.767 932.799 500.419 932.799C501.853 932.799 501.071 898.799 499.636 892.799C498.072 886.266 499.506 885.733 521.669 885.733C532.881 885.733 542.398 886.266 542.92 886.933C543.441 887.599 543.572 921.733 543.18 962.8C542.659 1029.87 542.268 1037.47 540.443 1037.87C537.574 1038.4 526.102 1028.93 473.041 982.266C463.524 974 455.441 967.333 455.18 967.733C454.006 968.933 450.486 1006.8 450.486 1017.73C450.486 1025.6 449.965 1029.07 448.531 1030.27C447.097 1031.47 442.273 1030.93 425.455 1027.47C413.852 1025.2 403.292 1022.67 402.119 1022C399.251 1020.4 398.99 1013.73 401.597 1011.6C402.64 1010.8 404.074 1008.4 404.856 1006.4C406.421 1002.4 424.543 887.466 424.543 881.599C424.543 877.599 426.629 872.799 428.323 872.799C428.975 872.799 433.538 873.999 438.362 875.599ZM608.497 875.066C609.67 876.399 610.191 879.733 610.061 883.866C609.67 893.333 624.663 993.066 628.183 1004.8C628.965 1007.33 630.66 1010.93 631.963 1012.67C635.223 1016.93 635.092 1020.27 631.572 1022.67C629.877 1023.6 618.405 1026.4 606.15 1028.8C578.902 1034 579.033 1034.13 580.336 1020.8C580.988 1014.13 580.076 1003.87 576.425 978.133C568.733 922.799 565.474 903.066 562.867 895.199C559.347 884.799 560.259 883.866 577.468 880.666C585.03 879.333 594.156 876.933 597.545 875.599C605.498 872.399 606.411 872.399 608.497 875.066Z" fill="black"/>
<path id="Vector_22" d="M618.274 257.733C617.231 262.666 616.449 266.799 616.58 266.799C616.71 266.799 620.751 267.999 625.575 269.199C639.916 272.933 644.609 271.999 647.478 264.799C648.912 261.066 648.912 260.266 646.565 257.066C643.697 253.066 633.006 249.066 625.054 248.933L620.36 248.799L618.274 257.733Z" fill="black"/>
</g>
<path id="Vector_23" d="M162.626 448.933C159.758 451.999 151.415 473.066 144.114 495.199C138.247 513.066 130.686 545.866 128.469 562.533C127.165 572.799 127.296 574.666 129.121 577.466C131.989 581.866 138.247 581.999 140.985 577.733C142.028 575.999 143.592 569.466 144.375 563.333C147.764 535.333 156.108 503.333 167.711 473.733C172.013 462.933 175.533 453.199 175.533 452.133C175.533 446.399 166.929 444.266 162.626 448.933Z" fill="black"/>
<path id="Vector_24" d="M866.11 448.533C863.112 451.999 863.242 452.533 869.239 467.199C881.103 495.599 890.751 531.066 894.401 559.199C896.617 576.266 898.573 580.799 904.179 580.799C910.437 580.799 912.653 576.933 911.61 567.199C909.915 551.466 902.875 519.333 897.008 500.399C890.881 480.933 880.712 454.399 877.453 449.066C875.106 445.466 869.109 445.066 866.11 448.533Z" fill="black"/>
<path id="Vector_25" d="M118.561 612.799C115.171 614.266 112.303 618.933 114.259 620.133C114.911 620.533 116.214 620.533 116.866 620.133C117.648 619.599 118.17 622.799 118.17 628.666C118.17 637.866 118.3 638.133 121.299 638.133C123.124 638.133 124.819 637.599 125.21 637.066C125.471 636.533 125.992 630.666 126.123 624.133C126.383 613.199 126.123 612.133 123.906 611.866C122.602 611.733 120.125 612.133 118.561 612.799Z" fill="black"/>
<path id="Vector_26" d="M133.423 613.866C129.512 618.266 131.598 622.133 136.422 619.466C141.506 616.666 142.028 619.599 137.334 624.666C132.641 629.599 129.903 634.133 129.903 636.799C129.903 637.733 132.641 638.133 138.117 637.866C145.809 637.466 146.2 637.333 146.591 633.999C146.982 630.799 146.591 630.533 143.332 631.199L139.681 631.866L143.332 628.666C148.155 624.266 149.329 617.999 145.678 614.266C142.289 610.799 136.292 610.666 133.423 613.866Z" fill="black"/>
<path id="Vector_27" d="M897.139 613.066C895.705 617.333 891.272 634.933 891.272 636.399C891.272 637.333 892.706 638.133 894.401 638.133C897.139 638.133 897.921 636.799 900.919 626.933C902.745 620.799 904.309 614.799 904.309 613.599C904.309 611.066 898.051 610.666 897.139 613.066Z" fill="black"/>
<path id="Vector_28" d="M909.524 614.133C908.09 615.599 906.917 617.999 906.917 619.466C906.917 621.066 908.09 624.533 909.524 627.466C910.958 630.399 912.131 633.599 912.131 634.666C912.131 637.333 916.303 638.533 920.475 636.933C928.428 633.733 931.687 620.666 925.82 614.799C921.779 610.533 913.305 610.266 909.524 614.133ZM919.041 617.599C920.214 618.933 918.52 622.133 916.564 622.133C915.521 622.133 914.739 621.333 914.739 620.399C914.739 617.466 917.216 615.733 919.041 617.599ZM921.257 628.799C919.823 631.466 917.346 632.533 917.346 630.399C917.346 628.933 920.214 626.133 921.518 626.133C922.17 626.133 922.04 627.333 921.257 628.799Z" fill="black"/>
</g>
<path id="Vector_29" d="M205.388 209.733C203.693 211.866 203.824 211.999 205.91 210.266C207.083 209.333 208.126 208.266 208.126 207.999C208.126 206.933 207.083 207.599 205.388 209.733Z" fill="black"/>
<path id="Vector_30" d="M198.218 215.733L195.741 218.799L198.739 216.266C201.477 213.866 202.259 212.799 201.216 212.799C200.956 212.799 199.652 214.133 198.218 215.733Z" fill="black"/>
<path id="Vector_31" d="M837.82 213.333C837.82 213.6 838.863 214.666 840.166 215.6C842.122 217.333 842.252 217.2 840.557 215.066C838.863 212.933 837.82 212.266 837.82 213.333Z" fill="black"/>
<path id="Vector_32" d="M190.396 222.399L187.918 225.466L190.917 222.933C193.655 220.533 194.437 219.466 193.394 219.466C193.133 219.466 191.83 220.799 190.396 222.399Z" fill="black"/>
<path id="Vector_33" d="M845.642 219.999C845.642 220.266 846.685 221.333 847.989 222.266C849.944 223.999 850.075 223.866 848.38 221.733C846.685 219.599 845.642 218.933 845.642 219.999Z" fill="black"/>
<path id="Vector_34" d="M856.072 229.466C857.766 231.333 859.461 232.799 859.722 232.799C860.113 232.799 859.07 231.333 857.375 229.466C855.681 227.599 853.986 226.133 853.725 226.133C853.334 226.133 854.377 227.599 856.072 229.466Z" fill="black"/>
<path id="Vector_35" d="M176.707 235.066L172.274 240.133L177.228 235.599C179.835 233.066 182.052 230.799 182.052 230.533C182.052 229.466 181.009 230.533 176.707 235.066Z" fill="black"/>
<path id="Vector_36" d="M148.025 264.399L143.592 269.466L148.546 264.933C151.154 262.399 153.37 260.133 153.37 259.866C153.37 258.799 152.327 259.866 148.025 264.399Z" fill="black"/>
<path id="Vector_37" d="M892.576 266.533C892.576 266.799 894.531 268.666 896.878 270.933L901.05 274.799L897.269 270.399C893.619 266.399 892.576 265.466 892.576 266.533Z" fill="black"/>
<path id="Vector_38" d="M135.64 278.399L133.163 281.466L136.161 278.933C138.899 276.533 139.681 275.466 138.638 275.466C138.377 275.466 137.074 276.799 135.64 278.399Z" fill="black"/>
<path id="Vector_39" d="M906.265 282.133C907.568 283.599 908.872 284.799 909.263 284.799C909.654 284.799 908.872 283.599 907.568 282.133C906.265 280.666 904.961 279.466 904.57 279.466C904.179 279.466 904.961 280.666 906.265 282.133Z" fill="black"/>
<path id="Vector_40" d="M910.828 287.999C910.828 288.266 911.871 289.333 913.174 290.266C915.13 291.999 915.26 291.866 913.565 289.733C911.871 287.599 910.828 286.933 910.828 287.999Z" fill="black"/>
<path id="Vector_41" d="M917.346 295.999C917.346 296.266 918.389 297.333 919.693 298.266C921.648 299.999 921.779 299.866 920.084 297.733C918.389 295.599 917.346 294.933 917.346 295.999Z" fill="black"/>
<path id="Vector_42" d="M51.6804 382.133C51.6804 382.799 52.3323 383.466 52.9841 383.466C53.7664 383.466 54.2878 382.799 54.2878 382.133C54.2878 381.333 53.7664 380.799 52.9841 380.799C52.3323 380.799 51.6804 381.333 51.6804 382.133Z" fill="black"/>
<path id="Vector_43" d="M1016.56 510.933C1016.56 512.399 1016.95 512.799 1017.34 511.733C1017.73 510.799 1017.6 509.599 1017.21 509.199C1016.82 508.666 1016.43 509.466 1016.56 510.933Z" fill="black"/>
<path id="Vector_44" d="M1019.17 522.933C1019.17 524.399 1019.56 524.799 1019.95 523.733C1020.34 522.799 1020.21 521.599 1019.82 521.199C1019.43 520.666 1019.04 521.466 1019.17 522.933Z" fill="black"/>
<path id="Vector_45" d="M17.9144 532.266C17.9144 533.733 18.3055 534.133 18.6966 533.066C19.0877 532.133 18.9573 530.933 18.5662 530.533C18.1751 529.999 17.784 530.799 17.9144 532.266Z" fill="black"/>
<path id="Vector_46" d="M1023.08 546.933C1023.08 548.399 1023.47 548.799 1023.86 547.733C1024.25 546.799 1024.12 545.599 1023.73 545.199C1023.34 544.666 1022.95 545.466 1023.08 546.933Z" fill="black"/>
<path id="Vector_47" d="M15.3068 548.266C15.3068 549.733 15.6979 550.133 16.0891 549.066C16.4802 548.133 16.3498 546.933 15.9587 546.533C15.5676 545.999 15.1765 546.799 15.3068 548.266Z" fill="black"/>
<path id="Vector_48" d="M1024.38 556.266C1024.38 557.733 1024.77 558.133 1025.16 557.066C1025.55 556.133 1025.42 554.933 1025.03 554.533C1024.64 553.999 1024.25 554.799 1024.38 556.266Z" fill="black"/>
<path id="Vector_49" d="M14.0031 558.933C14.0031 560.399 14.3942 560.799 14.7853 559.733C15.1765 558.799 15.0461 557.599 14.655 557.199C14.2639 556.666 13.8727 557.466 14.0031 558.933Z" fill="black"/>
<path id="Vector_50" d="M1025.82 568.799C1025.82 570.666 1026.08 571.333 1026.47 570.399C1026.73 569.599 1026.73 567.999 1026.47 567.066C1026.08 566.266 1025.82 566.933 1025.82 568.799Z" fill="black"/>
<path id="Vector_51" d="M12.8297 570.133C12.8297 571.999 13.0905 572.666 13.4816 571.733C13.7423 570.933 13.7423 569.333 13.4816 568.399C13.0905 567.599 12.8297 568.266 12.8297 570.133Z" fill="black"/>
<path id="Vector_52" d="M1027.25 583.466C1027.25 586.799 1027.51 588.133 1027.77 586.399C1028.03 584.799 1028.03 582.133 1027.77 580.399C1027.51 578.799 1027.25 580.133 1027.25 583.466Z" fill="black"/>
<path id="Vector_53" d="M11.5261 587.466C11.5261 589.999 11.7869 591.066 12.178 589.733C12.4387 588.533 12.4387 586.399 12.178 585.066C11.7869 583.866 11.5261 584.933 11.5261 587.466Z" fill="black"/>
<path id="Vector_54" d="M1028.68 620.799C1028.68 629.199 1028.81 632.666 1029.07 628.399C1029.34 624.266 1029.34 617.333 1029.07 613.066C1028.81 608.933 1028.68 612.399 1028.68 620.799Z" fill="black"/>
<path id="Vector_55" d="M11.5261 648.8C11.5261 651.333 11.7869 652.4 12.178 651.066C12.4387 649.866 12.4387 647.733 12.178 646.4C11.7869 645.2 11.5261 646.266 11.5261 648.8Z" fill="black"/>
<path id="Vector_56" d="M1027.12 654.799C1027.12 656.933 1027.38 657.733 1027.77 656.399C1028.03 655.199 1028.03 653.333 1027.77 652.399C1027.38 651.599 1027.12 652.533 1027.12 654.799Z" fill="black"/>
<path id="Vector_57" d="M12.8297 666.133C12.8297 667.999 13.0905 668.666 13.4816 667.733C13.7423 666.933 13.7423 665.333 13.4816 664.399C13.0905 663.599 12.8297 664.266 12.8297 666.133Z" fill="black"/>
<path id="Vector_58" d="M1025.82 668.799C1025.82 670.666 1026.08 671.333 1026.47 670.399C1026.73 669.599 1026.73 667.999 1026.47 667.066C1026.08 666.266 1025.82 666.933 1025.82 668.799Z" fill="black"/>
<path id="Vector_59" d="M14.0031 678.933C14.0031 680.399 14.3942 680.799 14.7853 679.733C15.1765 678.799 15.0461 677.599 14.655 677.199C14.2639 676.666 13.8727 677.466 14.0031 678.933Z" fill="black"/>
<path id="Vector_60" d="M1024.38 681.599C1024.38 683.066 1024.77 683.466 1025.16 682.399C1025.55 681.466 1025.42 680.266 1025.03 679.866C1024.64 679.333 1024.25 680.133 1024.38 681.599Z" fill="black"/>
<path id="Vector_61" d="M15.3068 689.599C15.3068 691.066 15.6979 691.466 16.0891 690.399C16.4802 689.466 16.3498 688.266 15.9587 687.866C15.5676 687.333 15.1765 688.133 15.3068 689.599Z" fill="black"/>
<path id="Vector_62" d="M1023.08 690.933C1023.08 692.399 1023.47 692.799 1023.86 691.733C1024.25 690.799 1024.12 689.599 1023.73 689.199C1023.34 688.666 1022.95 689.466 1023.08 690.933Z" fill="black"/>
<path id="Vector_63" d="M958.544 883.066C957.761 884.933 957.892 885.066 959.195 883.866C960.108 882.933 960.499 881.866 960.108 881.466C959.717 881.066 958.935 881.733 958.544 883.066Z" fill="black"/>
<path id="Vector_64" d="M925.038 933.733C923.343 935.866 923.474 935.999 925.56 934.266C927.646 932.533 928.297 931.466 927.254 931.466C926.994 931.466 925.951 932.533 925.038 933.733Z" fill="black"/>
<path id="Vector_65" d="M921.127 939.066C919.432 941.199 919.562 941.333 921.648 939.599C922.822 938.666 923.865 937.599 923.865 937.333C923.865 936.266 922.822 936.933 921.127 939.066Z" fill="black"/>
<path id="Vector_66" d="M129.251 952.799C130.555 954.266 131.859 955.466 132.25 955.466C132.641 955.466 131.859 954.266 130.555 952.799C129.251 951.333 127.948 950.133 127.557 950.133C127.165 950.133 127.948 951.333 129.251 952.799Z" fill="black"/>
<path id="Vector_67" d="M908.742 954.399L906.265 957.466L909.263 954.933C910.828 953.466 912.131 952.133 912.131 951.866C912.131 950.799 911.088 951.599 908.742 954.399Z" fill="black"/>
<path id="Vector_68" d="M900.268 964.399L895.835 969.466L900.789 964.933C905.222 960.533 906.265 959.466 905.222 959.466C904.961 959.466 902.745 961.733 900.268 964.399Z" fill="black"/>
<path id="Vector_69" d="M139.942 965.466C141.246 967.199 142.81 968.799 143.462 968.799C144.114 968.799 143.332 967.333 141.637 965.466C137.726 961.199 136.943 961.199 139.942 965.466Z" fill="black"/>
<path id="Vector_70" d="M157.281 984.133C161.844 988.933 166.016 992.799 166.277 992.799C166.668 992.799 163.148 988.933 158.585 984.133C154.022 979.333 149.85 975.466 149.589 975.466C149.198 975.466 152.718 979.333 157.281 984.133Z" fill="black"/>
<path id="Vector_71" d="M179.444 1005.47C181.921 1008 184.138 1010.13 184.529 1010.13C184.92 1010.13 183.225 1008 180.748 1005.47C178.271 1002.93 176.055 1000.8 175.664 1000.8C175.272 1000.8 176.967 1002.93 179.444 1005.47Z" fill="black"/>
<path id="Vector_72" d="M859.201 1006.4L855.42 1010.8L859.722 1006.93C861.938 1004.67 863.894 1002.8 863.894 1002.53C863.894 1001.47 862.851 1002.4 859.201 1006.4Z" fill="black"/>
<path id="Vector_73" d="M849.423 1015.07C847.728 1017.2 847.858 1017.33 849.944 1015.6C852.03 1013.87 852.682 1012.8 851.639 1012.8C851.378 1012.8 850.335 1013.87 849.423 1015.07Z" fill="black"/>
<path id="Vector_74" d="M841.6 1021.73C839.906 1023.87 840.036 1024 842.122 1022.27C844.208 1020.53 844.86 1019.47 843.817 1019.47C843.556 1019.47 842.513 1020.53 841.6 1021.73Z" fill="black"/>
<path id="Vector_75" d="M828.563 1032.4C826.868 1034.53 826.999 1034.67 829.085 1032.93C831.171 1031.2 831.823 1030.13 830.78 1030.13C830.519 1030.13 829.476 1031.2 828.563 1032.4Z" fill="black"/>
<path id="Vector_76" d="M613.32 1129.73C614.233 1130.13 615.406 1130 615.797 1129.6C616.319 1129.2 615.537 1128.8 614.102 1128.93C612.668 1128.93 612.277 1129.33 613.32 1129.73Z" fill="black"/>
<path id="Vector_77" d="M443.837 1132.4C444.75 1132.8 445.923 1132.67 446.314 1132.27C446.836 1131.87 446.054 1131.47 444.62 1131.6C443.186 1131.6 442.794 1132 443.837 1132.4Z" fill="black"/>
<path id="Vector_78" d="M596.372 1132.4C597.285 1132.8 598.458 1132.67 598.849 1132.27C599.371 1131.87 598.588 1131.47 597.154 1131.6C595.72 1131.6 595.329 1132 596.372 1132.4Z" fill="black"/>
<path id="Vector_79" d="M578.12 1135.07C579.033 1135.47 580.206 1135.33 580.597 1134.93C581.118 1134.53 580.336 1134.13 578.902 1134.27C577.468 1134.27 577.077 1134.67 578.12 1135.07Z" fill="black"/>
<path id="Vector_80" d="M475.127 1136.4C476.039 1136.8 477.212 1136.67 477.604 1136.27C478.125 1135.87 477.343 1135.47 475.909 1135.6C474.475 1135.6 474.084 1136 475.127 1136.4Z" fill="black"/>
<path id="Vector_81" d="M566.386 1136.4C567.299 1136.8 568.472 1136.67 568.864 1136.27C569.385 1135.87 568.603 1135.47 567.169 1135.6C565.735 1135.6 565.344 1136 566.386 1136.4Z" fill="black"/>
<path id="Vector_82" d="M494.03 1137.73C495.986 1138 499.115 1138 501.201 1137.73C503.156 1137.47 501.462 1137.2 497.55 1137.2C493.639 1137.2 491.944 1137.47 494.03 1137.73Z" fill="black"/>
<path id="Vector_83" d="M544.223 1137.73C545.788 1138 548.135 1138 549.438 1137.73C550.612 1137.33 549.308 1137.07 546.44 1137.2C543.572 1137.2 542.529 1137.47 544.223 1137.73Z" fill="black"/>
<path id="Vector_84" d="M0.183764 1220.8C-0.20735 1221.47 0.0533923 1222.13 0.705249 1222.13C1.48748 1222.13 2.13933 1221.47 2.13933 1220.8C2.13933 1220 1.87859 1219.47 1.61785 1219.47C1.22673 1219.47 0.574878 1220 0.183764 1220.8Z" fill="black"/>
</g>
</svg>
